<svg xmlns="http://www.w3.org/2000/svg" xmlns:xlink="http://www.w3.org/1999/xlink" xmlns:sketch="http://www.bohemiancoding.com/sketch/ns" width="800px" height="800px" viewBox="0 0 800 800" version="1.1"><style>.style0{fill:	none;fill-rule:	evenodd;}.style1{fill:	#ffffff;}</style><defs/><g sketch:type="MSPage" class="style0"><g sketch:type="MSLayerGroup" class="style1"><path d="M389.843038 1 C392.810127 1.3 396.4 2.9 396.9 6.2 C397.367089 11.9 396.4 17.5 395.7 23.1 C393.24557 31.5 389.6 39.5 388.2 48.2 C386.278481 54.6 384.6 61.2 384.8 68 C385.174684 76.6 383.1 85.3 385.5 93.7 C386.36962 96.5 389.1 99.7 392.2 97.9 C396.587342 95.2 399.1 90.3 401.5 85.8 C404.364557 78.6 408.4 71.8 410.4 64.2 C412.617722 58.9 413 53 415.1 47.7 C416.496203 43.4 417.7 39 419.4 34.7 C422.146835 25.1 423.8 15.2 427.1 5.8 C428.516456 1 434.6 1.7 438.5 1.9 C445.883544 3.2 453.6 2.6 460.8 5 C463.503797 5.8 465.3 8.5 465.7 11.2 C463.898734 22.8 457.8 32.9 452 42.9 C446.187342 54.6 438.8 65.6 434.2 77.9 C431.665823 84.9 428.4 91.7 426.7 99 C424.567089 104.6 422.7 110.4 420.7 116.2 C419.898734 118.9 419.4 121.8 419.6 124.6 C420.506329 135 422.6 145.2 424.3 155.4 C426.956962 163 427.7 171.1 430.3 178.7 C432.283544 187.4 435.9 195.5 438.6 204 C439.787342 209.1 442 213.8 443 219 C445.701266 227.7 449.2 236.2 452.6 244.7 C454.734177 249.7 455.3 255.1 457.6 260 C458.673418 262.5 460.1 266.9 456.4 267.8 C449.346835 267.7 442.2 268.4 435.2 267.2 C429.681013 266.5 424 268.6 418.6 266.5 C416.435443 259.1 417.6 251.2 417.1 243.6 C416.810127 236 413.7 228.9 412.9 221.5 C412.334177 217.4 410.3 213.8 409.4 209.9 C408.597468 203.8 405.5 198.1 401.3 193.7 C399.655696 191.6 396.7 191.4 394.4 192.3 C392.020253 194.8 390.6 198.1 389.3 201.3 C388.070886 208.5 388.5 215.9 389.2 223.1 C391.544304 234.4 394.3 245.6 398.4 256.4 C399.746835 259.7 401.3 263.1 400.9 266.7 C397.681013 269.1 393.5 267.6 389.8 267.4 C382.835443 266.3 375.8 267.8 368.8 267 C365.367089 266.6 365.6 262.6 365.1 260.1 C364.040506 255.4 365.8 250.7 365.1 246 C364.283544 240.6 364.8 235.1 364.2 229.6 C362.84557 217.1 362.5 204.5 362.3 191.9 C358.420253 174.1 360.1 155.7 357.9 137.7 C356.8 129.7 357.8 121.5 356.7 113.5 C356.202532 107.9 356.5 102.2 356 96.6 C354.582278 85.1 356.4 73.4 354.5 61.9 C354.288608 43.6 354.5 25.3 354.4 7.1 C353.650633 2.6 358.7 1.3 362 0.4 C371.250633 -1 380.6 0.7 389.8 1 Z M503.402532 13 C509.711392 15 515.7 17.9 522 19.9 C525.640506 21.7 529 24.4 531.3 27.8 C533.164557 46.2 529 64.5 524.6 82.2 C523.939241 86 522.5 90.1 519.1 92.2 C515.351899 93.3 511.6 91.2 509.5 88.2 C506.946835 85.4 506.6 81.5 505.2 78.2 C503.473418 75.1 501 71.6 497.1 71.8 C493.903797 71.5 492.4 74.8 491.1 77.1 C486.956962 84.4 485.5 92.8 482.2 100.4 C480.860759 104.7 480 109.1 480.2 113.6 C486.967089 113.3 493.9 110 500.6 112.3 C506.886076 115.5 512.3 121.6 512.9 128.8 C514.470886 135.1 515 141.6 514.2 148 C512.789873 155.3 512.1 163 508 169.4 C504.567089 170 500.4 169.6 498.3 166.5 C494.75443 162.6 492.2 157.1 487 155.5 C482.36962 156 479.3 160.5 478.2 164.7 C477.640506 170 478.1 175.4 478 180.8 C477.741772 186.3 480.7 191.2 481.5 196.5 C482.065823 200 483.8 203.6 487.3 204.8 C490.126582 205.3 493.1 205.4 495.9 204.7 C499.665823 203.2 502.8 200.5 506.6 199.1 C508.172152 198.8 510.2 198.6 511.2 200.2 C513.589873 203 514.3 206.8 515.4 210.3 C517.18481 215.9 515.8 222 517.3 227.7 C519.159494 235.2 520.5 242.9 520.8 250.6 C521.063291 256.1 524.4 261.2 523.3 266.7 C519.635443 268.7 515.3 267.8 511.4 268.1 C503.301266 268.5 495.3 267.7 487.2 267.5 C483.220253 267.4 478 269.6 475.1 265.8 C471.767089 260.3 471.3 253.6 469.1 247.6 C467.797468 244.1 467.2 240.4 466.6 236.7 C465.964557 232.5 464.3 228.6 463.7 224.4 C462.997468 220.2 462.3 215.9 461.2 211.7 C458.896203 203.8 458 195.6 455.9 187.7 C454.693671 180.6 451.2 173.9 451.6 166.5 C451.989873 160.4 450.4 154.4 450.6 148.2 C450.734177 139.8 450.2 131.3 451.5 122.9 C451.392405 113.7 452.9 104.6 454.7 95.6 C455.797468 90 455.4 84.3 457.2 78.9 C460.708861 63.5 464.6 48.1 470.8 33.5 C473.772152 25.7 477.2 17.2 484.4 12.6 C490.268354 9.1 497.5 10.3 503.4 13 Z M286.774684 15.4 C294.086076 14.5 302.2 14.3 308.6 18.5 C313.225316 21.5 318.1 24.5 321.5 29 C326.086076 35.5 329.7 42.6 331.7 50.3 C334.926582 56.4 334.2 63.5 336.3 69.9 C338.420253 76.9 337.8 84.3 339.2 91.4 C342.551899 104 341.8 117.7 337.2 129.9 C336.151899 133.3 333 135.3 330.1 137.1 C327.068354 139.1 323.2 139.3 320.3 141.6 C319.989873 145 321.9 148.1 323.2 151.2 C326.81519 158.2 330.6 165.2 333.1 172.7 C339.594937 193.4 347.2 213.7 353.4 234.5 C354.308861 240.6 357.3 246.3 357.9 252.5 C358.450633 256.9 359.4 261.8 357.2 265.9 C342.825316 266.5 328.4 266.1 313.9 266.1 C312.465823 266 310.8 266 309.9 264.6 C308.506329 257.6 311.4 250.7 311.8 243.7 C312.081013 228.4 312.4 212.7 307.7 197.9 C305.21519 192.5 303.8 186.3 299.4 182.1 C297.022785 179.8 294.5 176.5 290.9 176.9 C283.898734 179.7 281.9 188 281.5 194.9 C280.921519 200.8 283.8 206.3 283.7 212.2 C283.939241 224.7 289.7 236 292.7 247.9 C294.572152 253.7 297.5 259.5 297.6 265.6 C288.901266 266.9 280.1 265.9 271.4 266.2 C264.779747 266 258.1 266.7 251.6 265.6 C249.377215 259.6 250.6 253.2 249.7 247 C248.243038 235.5 247.1 223.9 246.5 212.3 C246.855696 204.8 247.1 197.3 246.1 189.9 C245.98481 151.6 246.1 113.4 246.1 75.1 C246.04557 67.7 246 60.2 245.1 52.8 C245.670886 46.4 245.7 39.5 249.7 34.1 C253.113924 28.8 259.6 27 264.6 23.7 C271.422785 19.5 279.1 17.3 286.8 15.4 Z M556.658228 30.7 C564.708861 35 572.2 40.3 580 44.9 C583.129114 46.5 586.6 49.6 585.1 53.5 C579.58481 67.1 573.3 80.5 569.4 94.8 C567.260759 101.2 565.9 107.8 563.7 114.2 C562.551899 121.9 560.5 129.5 559.4 137.2 C558.764557 148.5 559.1 159.9 558.7 171.2 C558.268354 176.2 558.7 181.4 559.6 186.3 C561.316456 189.3 564.5 191.9 568.1 192.2 C572.374684 191.7 575.4 188.1 579.5 186.9 C581.427848 186.6 583.8 186.3 585.5 187.6 C589.873418 193 590.3 200.2 590.8 206.8 C592.911392 216.5 593.8 226.3 595 236.1 C596.526582 244 597.4 252.1 598.4 260.1 C598.713924 262.8 598.3 265.5 597.2 268 C593.296203 268.8 589.3 268.2 585.3 268.2 C572.222785 267.8 559.1 268.7 546 268 C540.820253 266.1 540.9 259.5 539.5 255 C537.225316 247.7 536.6 240 534.6 232.6 C532.678481 224.4 532.9 215.9 530.9 207.7 C528.840506 199.8 529.9 191.6 529 183.6 C529.832911 173.2 529.3 162.8 529.8 152.4 C531.088608 141.9 531.4 131.4 531.8 120.9 C533.144304 113.9 532.3 106.8 532.9 99.7 C533.751899 94 533.4 88.1 534.7 82.5 C536.810127 72.9 536.7 62.9 539.2 53.4 C541.053165 45.9 540.6 37.5 545.6 31.2 C548.546835 28.1 553.1 30 556.7 30.7 Z M223.61519 42.6 C228.516456 44.9 231.2 50.1 232.6 55.2 C233.316456 60 232.6 64.9 233.3 69.7 C234.308861 75.6 233.7 81.5 234 87.3 C234.643038 95.5 235.2 104.2 232.3 112.1 C230.997468 112.3 229.7 112.5 228.4 112.1 C223.017722 110.1 218.6 106.2 213.4 103.8 C210.227848 103.3 206.9 103.3 203.7 103.8 C201.134177 104.7 199.6 107.4 198.8 109.9 C197.255696 114.9 195.8 120.2 196.8 125.5 C198.572152 129 202.8 127.5 205.8 127.1 C216.222785 125.5 227.9 132.2 230.4 142.7 C233.336709 150.3 233.5 158.6 232.2 166.6 C231.159494 172.6 230.8 178.8 228.5 184.5 C225.772152 185.1 222.9 185.3 220.2 184.5 C215.848101 181.4 213 176.4 208.2 174 C205.589873 173.3 202.1 173 200.2 175.3 C197.559494 177.8 197.3 181.7 196.7 185 C196.010127 193.5 195.7 202.4 199.5 210.2 C201.974684 213.8 205.7 217.6 210.5 216.1 C217.073418 213.8 223.2 210.2 228.7 205.9 C230.36962 204.4 233.3 204.6 234.2 206.8 C237.265823 212.2 236.8 218.6 237.9 224.6 C239.807595 233.9 238.8 243.4 239.1 252.8 C238.946835 257.5 239.8 262.9 236.7 266.9 C232.718987 267.4 228.7 266.6 224.7 266.3 C220.273418 265.8 215.8 267.1 211.4 266.5 C201.448101 265.5 191.4 266.8 181.5 265.9 C176.901266 260 176.6 252.2 174.3 245.4 C172.38481 239.9 173.5 234.1 173 228.4 C171.23038 215.3 172.8 202.1 171.9 189 C170.562025 179.6 171.4 170 171.1 160.4 C171.726582 151.5 169 142.9 169.1 134 C169.032911 122 168.6 109.9 169.5 97.8 C170.673418 91.2 168.9 84.1 171.6 77.7 C173.073418 72 178 68.5 182.1 64.7 C188.131646 59.9 194.3 54.9 201.4 51.6 C208.577215 48.2 215.7 43.8 223.6 42.6 Z M621.589873 68.2 C626.977215 70 631.5 73.8 636 77.1 C645.589873 84.3 654.9 91.9 662.7 101 C665.235443 104.8 664.1 109.5 664.3 113.8 C664.364557 121.5 662 129 659.5 136.3 C658.450633 139.6 654.7 141 651.5 139.8 C645.812658 137.5 642 132.3 638.4 127.5 C636.020253 124.5 633.5 121 629.7 119.8 C626.035443 119.3 623 122.5 621.4 125.5 C620.141772 130.1 618.4 134.9 619.1 139.8 C619.797468 143 623.4 144.1 626.2 143.4 C634.379747 142.3 642 147.2 646.9 153.4 C649.974684 157.2 650.1 162.3 650.9 166.9 C651.989873 173.1 652.3 179.4 652.1 185.7 C651.453165 189.7 650 193.4 648.1 197 C647.402532 198.7 645.2 199.5 643.5 198.7 C639.837975 197.1 636.6 194.6 633.1 192.8 C629.306329 190.9 624.1 192.6 622.5 196.6 C620.131646 202.1 620.6 208.3 622.1 213.9 C623.807595 218.5 627.9 222.5 632.9 223 C639.878481 222.3 644.4 214.3 651.8 215.4 C659.432911 222.5 661.6 233.5 662.3 243.6 C662.146835 250.6 663 257.7 662 264.7 C661.660759 267.9 658.1 269.3 655.3 269.1 C643.078481 269.1 630.9 269.2 618.7 269.2 C614.035443 269.5 611.9 264.3 611 260.5 C609.792405 254.5 606.8 248.8 606.6 242.6 C606.511392 236.5 603.3 231.2 602.7 225.2 C602.207595 218.6 601.5 212.1 599.9 205.7 C597.6 187.2 597.8 168.5 595.8 149.9 C594.713924 141.9 596.2 133.9 596.5 125.9 C598.177215 111.3 598.7 96.4 602.4 82.2 C603.574684 76.7 607.5 72.4 611.3 68.5 C614.329114 66.9 618.2 68 621.6 68.2 Z M131.64557 108.7 C144.141772 110.7 154.9 120.2 158.7 132.3 C160.101266 136 159.9 140 160.5 143.9 C161.751899 151.7 160.3 160 156.4 166.9 C154.916456 169.9 152.1 172.7 152.9 176.4 C154.359494 179 156.9 180.8 158.3 183.4 C161.296203 189.2 163.8 195.4 164.2 201.9 C166.136709 213.2 167.3 224.8 164.6 236 C163.503797 245.1 161 255.4 153.1 261.1 C148.040506 263.7 142.6 266.2 136.8 266 C102.632911 265.9 68.5 266 34.4 266 C32.7291139 266 30.9 265.9 29.7 264.6 C28.921519 257.8 28.6 250.5 31.8 244.2 C34.2075949 236.7 39.1 230.3 42.4 223.1 C52.2835443 201.5 64.3 180.9 78.3 161.7 C83.1392405 156.4 86.9 150.1 91.7 144.7 C96.9113924 138.7 101 131.9 107 126.6 C114.075949 119.3 121.6 111.4 131.6 108.7 Z M676.222785 110.9 C684.334177 116.5 690.4 124.4 697.7 131 C700.881013 133.8 703.8 137.2 705.3 141.2 C706.035443 144.2 703.3 146.1 701.6 148.1 C695.64557 154.4 691.2 163.3 693.3 172.1 C694.562025 176.9 694.7 182.4 698.5 186 C702.096203 190.9 710.9 191.8 714 186 C715.240506 183 715.2 179.6 715.7 176.4 C716.273418 172 713.8 167.5 715.7 163.2 C716.121519 160.3 720.5 160.5 721.6 162.8 C727.96962 171.2 733.4 180.2 739.1 188.9 C741.18481 191.9 744.3 194.8 743.5 198.8 C738.450633 203.7 733.7 209 730 215.1 C724.870886 221.7 720.6 229.3 719.4 237.7 C718.734177 243.3 720.8 248.7 721.6 254.2 C722.167089 258.4 723.9 262.5 724 266.7 C722.78481 269.5 719.5 269.2 717 269.3 C705.164557 269.3 693.3 269.2 681.5 269.3 C678.450633 269.5 674.9 268.8 673.6 265.6 C672.718987 261.6 674.5 257.6 675.4 253.7 C676.455696 249.8 676.3 245.6 677.5 241.7 C678.734177 237.3 680.4 233.1 680.4 228.5 C680.577215 222.7 680.5 216.9 680.5 211.1 C680.506329 205.4 677.4 200.4 676.6 194.8 C675.655696 188.1 672.8 181.8 671.8 175.1 C669.95443 168.3 668.4 161.5 668.1 154.5 C666.602532 145.7 665.3 136.7 667.1 127.8 C668.486076 121.9 667.3 115.2 670.8 109.8 C672.678481 109.3 674.7 109.6 676.2 110.9 Z M760.293671 231.7 C762.896203 235 765.2 238.8 766.3 242.9 C767.58481 249 764.7 255.8 759.2 258.7 C754.156962 259.7 749.3 257.4 744.9 255.3 C740.060759 253.2 736.6 248.8 734.6 244.1 C732.688608 236.6 737.9 227.9 745.8 226.8 C751.007595 225.1 757 227.3 760.3 231.7 Z M79.9493671 283.3 C83.0886076 283.3 83.5 287.1 84 289.4 C83.9291139 295.4 79.1 300.1 78.5 306 C76.9316456 319.9 74.8 334 76.5 348 C78.4 357 78.3 366.4 80.3 375.5 C82.156962 388.1 81.9 401 84.9 413.5 C86.2886076 418.1 85.9 423 86.9 427.6 C87.9594937 433 90.2 438.1 90.1 443.7 C90.0962025 448.5 91.1 453.2 92.3 457.8 C94.3291139 466.5 94.5 475.4 94.1 484.2 C93.6810127 488.4 91.8 492.3 89.3 495.6 C84.2936709 500.3 77 498.3 70.8 498.6 C55.0177215 500.3 39.1 499.2 23.2 499.5 C17.3974684 500.2 11.3 496.5 9.4 490.9 C8.13164557 488.1 6.3 485.4 6.1 482.2 C5.45822785 474.3 1.9 466.9 2 458.9 C2.97721519 447 -1 435.2 0.6 423.3 C1.70126582 416.9 -0 410.3 2 404.1 C2.84556962 401 6.6 401.3 9.1 401 C15.1696203 401.1 21.4 398.8 27.4 400.9 C30.8759494 402.1 34.9 403.7 36.2 407.4 C38.6835443 412.6 37.3 418.8 34.8 423.7 C30.8151899 430.3 30.5 438.6 32.3 445.9 C33.1746835 450 38 450.3 41.4 450.6 C44.0708861 450.2 47.8 450 48.8 447 C52.8405063 436.6 51.4 424.9 48.2 414.5 C44.5063291 405.9 40.9 397.4 37.4 388.8 C34.4405063 380.1 30.1 371.7 29.3 362.4 C28.9822785 357.1 26 352.4 25.2 347.2 C24.1518987 340.8 21.7 334.5 21.3 327.9 C21.1037975 318.7 17.7 309.8 18.2 300.5 C18.3797468 294.8 17.4 288 21.5 283.4 C29.9746835 282.9 38.5 283.6 46.9 282.7 C57.9341772 283.3 69 282.5 79.9 283.3 Z M218.248101 282.6 C222.379747 283 225.8 285.6 228.7 288.5 C230.258228 290 229.8 292.4 230 294.4 C230.308861 302.3 226.8 309.8 226.9 317.7 C226.825316 324.9 226.8 332 226.9 339.2 C227.64557 348.3 228.8 357.4 229 366.5 C229.18481 369.8 230.3 373.5 233.3 375.3 C236.44557 377.4 240.4 375.7 243.2 373.7 C246.693671 370.8 250.4 367.5 251.4 362.8 C254.774684 349.8 254.8 336.1 253.3 322.8 C252.962025 318.2 251 314 250.1 309.6 C248.708861 303.6 244.9 298.4 243.7 292.3 C243.453165 289.1 244.6 285.1 247.5 283.5 C256.931646 281.5 266.7 282.1 276.3 282.4 C280.151899 283 284.9 283.1 287.5 286.6 C289.124051 292.1 285.5 296.8 284 301.8 C283.220253 308.1 282.4 314.4 282.5 320.8 C282.632911 330 282.1 339.2 283.4 348.3 C283.837975 358.7 283.2 369.1 284 379.5 C284.972152 387.6 284.2 395.8 285.3 404 C286.460759 413.5 285.1 424.8 277.3 431.3 C271.746835 435.9 266.3 440.6 260.5 445 C253.174684 450.4 246.7 457 238.7 461.7 C234.825316 464.8 229.6 464.6 224.9 464.1 C217.508861 461.7 211.5 454.6 211.5 446.7 C211.453165 442.1 209.6 437.8 208.9 433.3 C207.716456 422 207.3 410.6 205.1 399.5 C203.827848 393.3 203.6 387.1 203.3 380.8 C201.18481 370.1 199.6 359.3 199.2 348.4 C197.853165 338.1 196.6 327.9 195.7 317.6 C195.392405 311.6 193.1 306.1 191.4 300.4 C190.106329 296.2 187.4 292.6 186.3 288.3 C185.843038 286.3 187.9 285 189.4 284.2 C193.437975 282.8 197.8 283.3 201.9 282.6 C207.321519 282.1 212.8 281.9 218.2 282.6 Z M399.260759 285.9 C407.149367 287.7 411.3 295.5 414.5 302.2 C417.518987 310.9 417.1 321.5 411.1 328.9 C407.605063 334 400.2 333.3 396 337.4 C395.351899 340.4 398.1 342.4 399.6 344.6 C405.924051 353.2 412.5 362.1 415.2 372.6 C415.716456 374.7 414.5 376.5 412.8 377.6 C402.055696 377 391 375.5 380.4 378.2 C375.179747 378.7 370.2 381 364.9 380.6 C361.275949 377 357.2 372.2 358.6 366.7 C359.929114 362.1 363.4 358.6 365.8 354.5 C367.473418 351.4 366.7 347.1 363.9 344.9 C359.675949 339.9 352.6 339.2 346.7 340.6 C343.098734 341.5 342 345.5 340.4 348.5 C338.01519 352.9 339.5 358 341.5 362.3 C343.301266 366.9 347.6 369.8 349.8 374.2 C351.037975 377.7 351.9 381.6 351.1 385.3 C338.389873 392 324 395.6 312.7 404.8 C310.136709 406.9 305.2 409.5 302.9 405.8 C302.055696 400.2 302.9 394.5 302.5 388.8 C301.741772 377.3 300.3 365.8 300.8 354.3 C300.222785 340.9 302.4 327.6 304.4 314.4 C306.541772 305.1 309.2 295.4 316.1 288.5 C320.506329 284 327.1 283.3 333.1 283.2 C344.546835 283.3 356 283.3 367.4 282.8 C378.086076 281.5 389.1 282.2 399.3 285.9 Z M129.549367 284.1 C138.005063 284.9 146.9 281.2 155 285.1 C162.440506 289.9 165.4 298.5 170 305.7 C172.293671 311.5 174.8 317.4 175.5 323.7 C176.222785 328.6 179.1 333 179.2 338.1 C179.493671 343 181.3 347.5 182.4 352.2 C183.655696 356.9 183 361.9 184.3 366.6 C186.055696 373.5 187.1 380.6 187.5 387.7 C188.587342 395.7 189.2 403.6 190 411.5 C189.974684 416.5 189.2 421.5 189.6 426.4 C190.683544 436.6 190.9 446.8 192.2 456.9 C192.587342 465.2 193 473.8 189.9 481.7 C184.668354 488.7 177.8 494.9 169.4 497.8 C163.412658 500.4 156.8 499 150.5 500.1 C144.901266 501.1 139.3 500 133.7 499.6 C127.898734 499.7 123.1 495.1 120.6 490.2 C116.394937 482.2 112.5 474 109.9 465.3 C104.273418 451.7 103.5 436.8 99.9 422.6 C98.8253165 417.9 99.7 412.9 98 408.3 C95.1392405 400.7 96.4 392.6 95.2 384.8 C94.764557 365.6 94.7 346.5 96.6 327.4 C97.6303797 321.9 98.6 316.4 99.5 310.9 C101.873418 303.8 104.8 296.9 108.3 290.3 C110.582278 286.1 115.5 284.6 119.9 283.6 C123.098734 283 126.3 284 129.5 284.1 Z M435.382278 286.3 C445.883544 286.3 456.4 286.3 466.9 286.3 C469.346835 286.3 472.1 286.4 474 288.2 C479.311392 292.8 483 298.9 487.4 304.2 C491.55443 309 495 314.4 498.3 319.8 C501.589873 324.8 505.9 329.1 510.9 332.5 C513.832911 334.4 518.5 336 521.1 332.6 C521.974684 328 521.4 323.3 521.5 318.7 C521.589873 310.1 516.8 302.6 513.9 294.9 C513.012658 292.3 512.7 288.5 516 287.7 C522.288608 286.6 528.7 288.6 535 287.6 C540.860759 287.2 547.9 286.3 552.4 290.9 C556.820253 294.6 557.8 300.6 558.7 305.9 C560.010127 318.7 557.7 331.4 558 344.2 C558.126582 349.8 556.6 355.5 557.5 361.1 C559.017722 374.7 558.8 388.4 560 402 C559.736709 414 563.6 425.6 563.1 437.6 C562.764557 443.6 564.7 449.5 563.8 455.5 C562.916456 461.4 563.4 467.7 560.9 473.2 C555.898734 474 551.9 470.5 548.6 467.3 C543.007595 461.7 537.3 456.2 532.1 450.3 C527.696203 445.5 522.5 441.6 518.2 436.7 C514.926582 432.9 510.9 429.6 508.6 425.1 C505.853165 419.7 506.6 413.5 504.5 407.9 C502.146835 402 502 395.6 499.4 389.7 C497.18481 379.8 493 370.4 489.6 360.9 C487.058228 354.5 482.3 349.4 477 345.1 C474.258228 343 470.5 344.4 468.6 346.9 C465.113924 349.7 465.4 354.8 466.7 358.6 C470.329114 366.4 474.9 373.6 478.5 381.4 C480.324051 384.8 482.6 388 483 392 C483.351899 395.4 484.5 399 483.5 402.5 C480.324051 403.9 476.8 402.7 474.1 400.9 C468.516456 397.4 463.5 393 457.6 390 C449.488608 385.5 440.4 382.7 432.8 377.2 C431.605063 369.2 432.2 361.1 433 353.1 C433.286076 348.7 432.2 344.5 432.4 340.1 C432.881013 329.4 428.3 319.3 428.3 308.6 C428.364557 301.6 426.6 294.5 427.5 287.5 C429.994937 286.5 432.7 286.2 435.4 286.3 Z M596.455696 289.1 C616.313924 289.7 636.2 289 656.1 289.5 C660.293671 289.5 662.6 293.2 664.3 296.6 C670.01519 305.6 673.4 316.2 673.7 326.9 C674.521519 336.4 675.7 345.8 675.6 355.3 C677.265823 363.7 677.9 372.1 677.9 380.6 C678.987342 388.7 678 396.8 678.8 404.8 C680.182278 412.1 678.9 419.6 680 427 C680.820253 431.8 680.3 436.8 680.6 441.7 C680.810127 446.2 682.9 450.6 682.1 455.3 C681.448101 458.7 681.8 462.3 682.9 465.6 C684.637975 471.9 684.2 478.6 686 484.9 C686.501266 486.8 687 488.9 685.9 490.7 C682.379747 492.5 678.3 492.4 674.5 492.4 C664.324051 492.3 654.2 492.5 644.1 492.4 C641.893671 492.7 640 490.4 640.1 488.4 C641.691139 475.7 646.9 463.6 647.1 450.8 C647.179747 446.2 646.4 441.5 644.1 437.5 C637.417722 428.5 625.1 424 614.3 427.1 C610.450633 429 606.1 431.9 605.7 436.6 C605.316456 442.5 605.3 448.6 607.1 454.4 C609.18481 460.6 609.7 467.2 612.6 473.1 C614.106329 479.2 618.8 484.4 618.2 490.9 C617.346835 493.6 614 493.5 611.7 493.6 C602.562025 493.3 593.4 493.8 584.3 493.6 C577.296203 493.6 572.2 487.7 569 482.2 C569.670886 478.1 572 474.4 571.9 470.1 C572.526582 451.4 575.7 432.9 575.2 414.2 C575.108861 402 575.3 389.8 575.1 377.7 C573.427848 366.2 574.5 354.6 573.9 343.1 C573.650633 338 572.1 333.1 572.1 328 C571.949367 321.2 571.7 314.4 572.3 307.7 C572.840506 303.4 574.5 299.3 575.9 295.2 C576.587342 293 578.2 291.1 580.6 290.7 C585.832911 289.8 591.1 289 596.5 289.1 Z M688.546835 289.3 C713.893671 289.4 739.2 289.3 764.6 289.3 C768.648101 289.3 772.7 290.1 776.7 290.3 C778.622785 290.4 780.9 290.3 782.3 291.9 C786.36962 300.7 784.6 310.7 781.5 319.5 C779.96962 326.6 777.2 333.4 774.9 340.4 C772.394937 346.4 768.8 351.8 766 357.7 C761.296203 366.3 755.9 374.6 752.9 384.1 C750.987342 391.4 747.8 398.9 749.8 406.6 C751.463291 410 755.9 409.4 758.9 408.4 C767.898734 405 775.9 399.4 783.7 393.8 C786.36962 391.5 790.8 390.6 793.5 393.3 C794.977215 395.5 795.7 398.1 796.1 400.7 C798.237975 417.1 796.5 433.7 793.3 449.9 C792.283544 456.3 791.8 462.8 789.9 469 C788.162025 474.5 788.3 480.3 787.5 486 C786.632911 490.3 781.4 491 777.8 491.4 C757.488608 491.4 737.2 491.3 717 491.7 C714.055696 491.7 711.1 491.9 708.2 491.1 C703.16962 483.5 700.2 474.5 699.1 465.4 C698.025316 460.2 696.1 455.1 695.7 449.7 C695.250633 439.2 696.6 428.6 694.6 418.2 C693.98481 408.2 693.7 398.1 693.2 388 C692.131646 380.7 693.2 373.4 692 366.1 C691.23038 359.8 691.9 353.5 691.6 347.2 C691.351899 342 689.3 337.1 688.7 331.9 C688.496203 319.8 684.4 308.3 682.3 296.4 C682.126582 294.5 682 292.6 682.7 290.8 C684.425316 289.7 686.5 289.3 688.5 289.3 Z M796.03038 356.3 C797.275949 359.4 801.3 362.3 799.5 365.9 C796.607595 369.9 793.6 375.5 787.9 375 C783.068354 375.7 778.8 373 775.6 369.6 C772.546835 366.5 773.1 361.6 774 357.7 C775.453165 354.2 777.1 349.1 781.7 348.9 C782.855696 348.7 784 348.5 785.2 348.4 C790.501266 347.2 793.2 352.9 796 356.3 Z M24.1316456 370.7 C27.8582278 374.2 27.9 379.8 27 384.4 C24.1721519 391.5 14 392.9 8.2 388.8 C3.05822785 386 1 379.4 2.3 373.9 C3.57468354 369.9 7.7 367.8 11.5 366.7 C16.0506329 365.1 20.9 367.7 24.1 370.7 Z M416.364557 396.1 C422.146835 395.7 427.5 398.3 433 399.3 C440.931646 400.9 448.1 404.9 454.9 408.9 C459.007595 411.5 464 413 467.2 416.8 C473.275949 422.9 476.1 431.2 478.3 439.3 C479.61519 447.4 482.3 455.6 480.9 463.9 C474.663291 465.3 469 461.8 463.6 459.1 C455.118987 451.9 451.4 440.4 442 434.1 C437.073418 432.4 431.6 430.9 426.5 432.7 C423.351899 433.5 420 436.5 421.6 440 C425.610127 443.5 431.3 441.3 435.9 443.1 C440.648101 445.9 446.6 448.9 447.4 455 C447.605063 461 449.3 467 448.7 473 C448.668354 475.6 445.1 477 443 475.7 C439.493671 473.5 435.9 470.9 431.5 471 C431.362025 473.5 431 476.2 432.2 478.5 C434.521519 482.8 436.9 487.2 439.5 491.4 C440.455696 492.8 440.7 494.4 440.3 496 C426.551899 497 412.7 496.2 399 496.6 C396.516456 497 395.4 494.2 395 492.2 C393.002532 482.9 394.6 473.3 393.1 463.9 C393.103797 453.4 390.9 443 390.6 432.5 C388.739241 423.5 391.7 414.5 395.3 406.4 C399.827848 399.6 408.2 395.4 416.4 396.1 Z M367.544304 409.2 C373.437975 414 374.2 422.1 376.1 429 C378.217722 443.5 379.2 458.2 380.2 472.8 C382.187342 481.1 378.4 490.4 371.2 495 C365.326582 497.5 358.7 496.7 352.4 496.9 C339.351899 496.9 326.3 497.7 313.2 497.3 C307.362025 496.9 300.9 499 295.6 495.5 C291.746835 492.7 288.2 489.1 286.1 484.8 C283.372152 477 282.1 468.3 284.8 460.2 C288.212658 449.6 293.8 439.4 302.2 431.9 C308.192405 427.3 314.5 423.1 320.9 419.1 C327.432911 414.5 334.5 410.8 341.9 407.8 C345.741772 406.6 349.9 407.1 353.8 406.3 C358.470886 405.5 364 405.7 367.5 409.2 Z M736.162025 510.7 C746.643038 510.7 757.1 510.6 767.6 510.8 C771.139241 510.6 775 510.7 778 512.9 C778.420253 519.7 776.4 526.5 773.4 532.6 C771.281013 539.1 766.3 544 763.5 550.1 C760.121519 557.2 756.3 564.2 750.9 570 C745.002532 577.7 739.6 586.1 736.4 595.3 C734.106329 600.2 739.4 604.8 738 609.8 C737.255696 612.8 735.5 615.4 733.8 617.9 C729.113924 624.7 725.6 632.4 720 638.6 C713.964557 647 707.5 655 700.3 662.5 C697.893671 665 694.6 667.1 691 665.6 C689.579747 662.1 691 658.3 691.5 654.8 C692.243038 649.7 693.6 644.8 694.8 639.9 C696.283544 634.2 695.3 628.4 696 622.7 C697.296203 613.1 696.7 603.4 695.8 593.8 C695.716456 588.2 692.7 583.2 691.3 577.8 C688.010127 570.4 685.6 562.5 684.2 554.4 C683.483544 550.5 681.2 547.1 680.3 543.2 C679.068354 538.1 677 533.2 674.9 528.4 C672.587342 523.6 672 518.2 671.5 512.9 C673.022785 511.3 675.4 511.7 677.4 511.6 C687.58481 511.7 697.7 511.7 707.9 511.6 C710.197468 511.7 712.7 511.5 714.7 513 C717.98481 521.5 712.2 529.6 709.1 537.2 C707.037975 543.7 705.6 551 708.9 557.4 C710.318987 562.7 715.3 567 721 566.6 C725.073418 566.9 728.5 564.2 730.8 561.1 C735.726582 555 736.9 546 733.1 539.1 C729.103797 530.9 726.8 521.9 725 512.9 C728.303797 510.9 732.4 511.2 736.2 510.7 Z M487.139241 511.7 C490.410127 511.9 495.2 511.7 496.5 515.5 C497.893671 518.9 496.3 522.5 496.3 525.9 C496.283544 531.5 493.7 536.6 493.2 542.1 C492.313924 550.5 488.5 558.2 485.9 566.2 C484.394937 572.4 481.8 578.3 481 584.7 C478.683544 594.6 476.1 604.5 474.3 614.5 C473.903797 620.6 473.1 626.7 472.4 632.8 C471.888608 644.7 469.6 656.7 471.6 668.6 C472.597468 673.4 473.3 678.2 474.3 683 C474.896203 686 478.5 688.6 481.4 686.7 C488.162025 681.8 491.5 673.8 496.4 667.2 C497.741772 665 500.5 664.4 502.9 665.2 C505.893671 667.2 508.2 670.4 508.5 674.1 C509.751899 682.9 512.3 691.5 512.6 700.5 C513.073418 707.7 516.3 714.5 516.6 721.8 C518.177215 738.4 522.5 754.8 521.4 771.5 C521.053165 775.3 520.2 779.9 516.4 781.8 C513.012658 783.4 509.7 785.2 506.1 786.5 C501.326582 787.2 496.2 786.2 491.7 788.5 C486.602532 790.9 480.8 790.7 475.5 792.5 C470.632911 794.1 465.3 794.6 460.3 793.4 C454.43038 791.7 452.1 785.3 451.3 779.9 C449.832911 773 451.3 766 449.8 759.1 C448.516456 747 450.3 734.8 448.9 722.6 C448.516456 719 448.7 715.4 448.3 711.8 C446.551899 701 448.7 689.8 446.7 679 C445.63038 671.7 444.7 664.3 444.3 656.9 C442.673418 645.5 444.2 633.9 443.3 622.5 C442.349367 616.9 442.6 611.2 441.9 605.6 C440.658228 594.3 439.9 582.9 439.3 571.6 C438.81519 565.4 436.5 559.5 436.4 553.3 C436.38481 547.2 434.7 541.4 433.7 535.5 C431.868354 528.7 432.3 521.7 432.5 514.8 C432.536709 512.7 435.2 512.4 436.8 511.9 C453.529114 511.3 470.3 511.9 487.1 511.7 Z M557.6 512 C565.205063 515.7 570.1 523.2 573.3 530.8 C576.556962 541.2 581.3 551.4 582.3 562.4 C582.663291 570.1 586.2 577.1 586.6 584.7 C588.162025 595.9 589 607.1 590.3 618.3 C590.389873 624.4 590.4 630.5 591.3 636.6 C591.594937 645.4 592.3 654.2 593.3 663 C593.681013 674.2 593 685.4 594.3 696.5 C594.75443 709.4 594.6 722.4 592.6 735.1 C590.36962 740.9 590.8 747.7 586.7 752.6 C584.44557 755.5 581.5 757.8 578.3 759.5 C570.562025 763.8 562.5 767.7 553.8 769.5 C549.275949 770.2 544.6 769 540.7 766.6 C532.870886 760 530.2 749.6 528.7 739.9 C527.959494 734.1 525.3 728.8 525.5 722.9 C525.721519 711.8 523.3 700.9 521.8 690 C520.779747 678.9 519.6 667.9 518.6 656.9 C518.389873 647.4 518.8 637.9 517.5 628.4 C517.579747 610.2 517.1 591.9 517.5 573.6 C517.417722 568.3 517.2 562.9 518.7 557.7 C521.124051 548.8 521.3 539.5 524.2 530.7 C525.934177 523.6 527.8 514.2 536 512 C543.149367 511.4 550.5 511.4 557.6 512 Z M618.75443 511.7 C626.177215 511.5 633.6 511.8 641 511.6 C644.263291 511.7 647.8 511.3 650.7 513.1 C654.926582 515.8 659.2 519 661.5 523.7 C666.946835 534.5 671.4 546 672.8 558.1 C674.916456 567 676.5 576.3 675.4 585.5 C672.212658 588.3 667.5 589.5 663.6 587.7 C657.387342 585.3 649.7 585 645.4 579.3 C642.734177 573.7 644.6 567.4 644.2 561.5 C644.050633 558.8 641.2 557.1 638.8 556.6 C635.108861 556.6 633 560.1 631.5 563 C628.749367 567.4 628.8 572.8 627.9 577.7 C627.311392 583.5 625.9 589.2 625.2 595.1 C624.617722 605.5 624.9 616 625.7 626.4 C625.691139 634.3 627.8 642.1 628.7 649.9 C628.850633 654.2 631.3 658.7 635.3 660.4 C640.870886 660.9 646.3 657.8 649.4 653.2 C651.017722 649.4 652.3 645.5 652.8 641.4 C653.205063 639.8 651.9 638.4 651 637.2 C646.946835 637 641.9 639.4 638.6 635.9 C634.956962 631.4 634.1 625.1 634.9 619.4 C635.716456 614 636.9 608.6 638.2 603.3 C638.653165 601.5 640.1 599.6 642.1 599.5 C644.678481 599.3 646.8 601 648.8 602.3 C653.640506 605.9 659.3 608.5 665.4 608.9 C667.736709 609.3 671.1 608.8 672.2 611.6 C675.017722 620.3 673.5 629.6 674.7 638.6 C675.858228 646.4 675 654.4 676.2 662.2 C676.810127 666.2 675.9 670.1 675.6 674.1 C675.797468 682 672.1 689.4 667.4 695.5 C661.286076 702.2 655.2 709 648.3 715 C643.767089 718.9 638.1 721 633 723.9 C625.660759 726.9 615.6 725.1 612 717.4 C610.025316 712.1 608.2 706.8 606.8 701.3 C606.187342 695.2 607 689.1 605.8 683 C603.858228 664.5 602.1 646 600.7 627.5 C601.691139 620.7 600.4 613.8 599.6 607 C599.078481 582.2 597.9 556.8 605.4 532.9 C606.916456 528.6 605.9 523.7 608.7 519.9 C610.956962 516.2 613.9 511.9 618.8 511.7 Z M178.551899 513.2 C186.906329 514.2 195.2 512.1 203.6 512.7 C208.536709 512.5 213.5 515.9 214.8 520.8 C216.040506 524.7 218 528.6 217.8 532.9 C217.701266 543.1 217.6 553.3 218.7 563.4 C218.4 571.1 219.4 578.6 220.5 586.2 C221.468354 604.6 220.7 623.1 221 641.6 C221.144304 647.1 219.8 652.6 220.5 658 C221.103797 663.5 221 669.1 220.3 674.6 C219.412658 682.4 220.4 690.3 219.5 698.1 C217.95443 711.9 219.9 726.5 214.2 739.5 C213.043038 742.9 209.9 747 205.9 746 C198.217722 744.3 190.5 742 184.1 737.3 C178.703797 734.1 174.5 729.3 169.4 725.6 C164.496203 722.1 160.8 717.2 156 713.6 C149.589873 708.6 144 702.6 139.2 696 C137.417722 691.4 136.5 686.5 135.1 681.7 C134.01519 673.8 134.8 665.8 135.5 657.9 C135.767089 651.4 137.7 645.1 137.7 638.6 C137.63038 629.9 138.7 621.1 139 612.4 C141.225316 602.8 141 592.8 142.2 583.1 C144.435443 572.6 144.5 561.9 145.7 551.3 C146.258228 542.9 145.2 534.5 146.1 526.2 C147.432911 521.5 149.4 515.9 154.4 514.2 C157.660759 513.3 161.1 513.4 164.4 513 C169.103797 512.5 173.9 512.6 178.6 513.2 Z M285.589873 512.6 C288.475949 512.8 291.9 512 294.2 514.2 C301.336709 520.3 303.7 530.1 303.8 539 C303.706329 552.3 304.1 565.7 303.3 578.9 C302.663291 586.3 303.4 593.6 302.7 601 C302.420253 603.6 300.3 605.5 298.3 606.9 C294.36962 608 290.4 605.7 287.8 602.9 C282.227848 595.5 281.1 585.9 275.6 578.6 C272.840506 575.1 266.6 576.3 265.1 580.4 C263.118987 584.9 261.4 589.5 260.8 594.4 C259.544304 604 257.9 613.6 257.3 623.3 C257.296203 632.9 258.6 642.5 260 652 C260.526582 658.2 260.1 664.5 261.8 670.6 C264.101266 677.4 265.1 685.1 270.3 690.5 C272.536709 692.7 276.2 692.2 278.5 690.5 C281.63038 688.1 283.8 684.7 287.2 682.7 C289.883544 681.2 293.1 683 294.7 685.3 C296.313924 688.8 297.1 692.6 297.6 696.5 C297.893671 704 298.9 711.4 298.8 718.9 C300.273418 731.3 300 743.8 299.1 756.3 C298.805063 761.5 299 766.9 297.1 771.8 C295.706329 775.3 295.4 780.1 291.6 781.9 C288.243038 783.6 284.6 781.9 281.3 781 C277.367089 779.7 273.2 779.4 269.4 777.7 C260.324051 773.6 251.4 769.1 243.4 763.2 C238.713924 759.8 236.7 754.2 235.2 749 C231.686076 726.6 229.6 703.9 231.6 681.3 C231.726582 675.2 231.5 669 231.7 662.9 C231.827848 658.2 230.5 653.6 231.1 649 C231.402532 646 231.6 643.1 231.3 640.1 C230.612658 634.5 231.1 628.9 230.6 623.3 C229.225316 611.9 230.1 600.3 229.9 588.8 C230.177215 583.4 228.6 578 228.8 572.6 C228.658228 566.1 230.8 559.6 229.3 553.2 C227.605063 544 230.8 535 230.9 525.9 C231.189873 519.6 235.7 513.4 242.3 513 C256.718987 512.3 271.2 512.9 285.6 512.6 Z M342.298734 512.7 C345.691139 512.2 347.6 515.7 349.1 518.1 C350.551899 526.3 352.6 534.6 351.3 543 C347.959494 560.8 347.1 578.9 347.3 597 C346.227848 607.5 345.6 618.1 347.1 628.5 C347.625316 636.5 347 644.4 348 652.3 C348.627848 656.8 348.4 661.4 348.7 665.9 C350.237975 678.4 348.5 691.1 350.2 703.6 C350.146835 712.4 351.5 721.1 352.6 729.9 C353.822785 737 353.3 744.2 354.2 751.4 C354.724051 762.3 357.8 772.9 358.5 783.7 C358.288608 786.7 358 790.1 355.8 792.3 C352.334177 794.4 348.1 793.9 344.3 794.1 C334.025316 794.3 323 792.6 314.8 785.9 C310.987342 780.2 312 773 311.9 766.5 C311.625316 760.7 313.2 755 312.9 749.2 C312.668354 742.9 314.2 736.7 315.4 730.5 C316.374684 725.2 315.5 719.7 316.4 714.3 C318.005063 703.7 317.7 692.9 318.6 682.3 C319.594937 669.4 318 656.5 317.8 643.6 C317.701266 637.1 316.5 630.8 316 624.4 C315.746835 613.9 316.2 603.4 315.8 592.9 C314.936709 585.5 314.3 578 314.7 570.6 C315.483544 558.8 314.1 546.9 314.6 535.1 C314.724051 529.6 315.5 524.1 315.2 518.6 C315.088608 516.4 315.8 513.5 318.2 512.9 C326.237975 512.3 334.3 512.8 342.3 512.7 Z M400 512.5 C407.949367 514.1 412 522.1 415.5 528.6 C417.387342 533.9 419 539.4 419.6 545 C421.012658 554.5 422.5 564 423.3 573.5 C423.058228 582 424.9 590.3 425.8 598.7 C429.103797 613.3 426 628.3 428 643 C429.235443 653 430.3 663 431.3 673.1 C431.16962 681 432.7 688.8 434.2 696.6 C434.75443 705 435.7 713.4 435.5 721.9 C436.962025 732.8 436.4 743.8 437.2 754.7 C437.812658 760.4 435 765.8 435.4 771.5 C435.605063 779.4 435.7 788.4 430 794.5 C424.83038 798.1 418.3 799 412.1 799.1 C405.235443 799.6 398.3 799.4 391.4 798.5 C385.286076 796.7 378.6 794 375.1 788.4 C373.660759 783.1 372.3 777.7 370.9 772.4 C369.974684 758.8 365.7 745.7 365.5 732 C365.56962 723.2 364.2 714.6 363 705.9 C362.106329 699.7 362.8 693.5 362.3 687.3 C361.802532 680.5 360.5 673.8 360.3 667 C359.989873 658.5 358.2 650.1 358.5 641.6 C358.491139 618.9 358.5 596.3 358.5 573.6 C358.36962 567.4 360 561.5 360.4 555.4 C360.607595 549.9 362.5 544.6 362.5 539.1 C362.693671 533.6 361.7 527.7 364.2 522.5 C366.096203 517.5 370.9 514 376 512.9 C383.949367 512.1 392 512.7 400 512.5 Z M42.5518987 513.7 C68.2025316 513.1 93.9 513.6 119.5 513.3 C125.21519 512.8 130.2 517.2 132.3 522.1 C134.612658 530.3 137.1 538.6 136.9 547.2 C136.779747 553 137.6 559 135.9 564.7 C135.311392 567.7 131.4 568.4 129 567.3 C125.427848 565.8 122.2 563.7 118.5 562.4 C112.617722 560.4 108.9 554.9 103.3 552.3 C99.6759494 550.6 95.9 549.3 92 548.4 C89.1139241 547.8 85.8 548.7 84.3 551.5 C85.1443038 554.1 87.7 555.4 90 556.4 C97.8632911 559.5 107.1 559.5 113.9 565 C118.81519 569.9 124.4 574.7 126.9 581.4 C130.156962 586.7 129.4 593 130.8 598.8 C132.070886 604.2 131.6 609.7 131.7 615.2 C132 624.8 129.5 634.1 128.6 643.6 C126.794937 651.8 123 660.8 115.1 664.7 C109.15443 666.1 103.2 663.3 97.7 661.5 C93.3468354 657.5 91.2 651.7 87.7 647 C79.7772152 636 72.3 624.6 64.6 613.4 C61.2151899 608.8 57 604.2 56.2 598.3 C55.4227848 595.6 55.7 592.6 57.1 590.2 C60.2227848 589.5 63.7 589.5 66.5 591.3 C74.1164557 595.5 82.8 598.3 91.6 597.5 C96.7696203 595.5 95.9 588.4 93.2 584.7 C89.2151899 579.1 82.6 576.6 76.4 574.2 C70.7240506 572.6 64.6 573.2 58.9 571.6 C54.5721519 570.5 49.8 570 46.5 566.7 C40.678481 561.4 33.1 557.3 29.8 549.8 C27.8278481 543.4 25.4 537 24.8 530.3 C24.2329114 526.1 21.3 520.8 25 517.4 C30.1468354 513.9 36.7 514.4 42.6 513.7 Z M298.562025 54 C301.721519 56.7 302.5 61 304 64.7 C307.23038 72.5 306.9 81.1 306.8 89.4 C306.349367 99.4 299.5 108.4 290.7 112.8 C287.108861 114.2 281.6 114.6 279.3 110.8 C277.539241 107.4 278 103.3 277.5 99.5 C277.144304 94.6 275 89.8 276.1 84.9 C277.681013 77.6 278 69.8 281.6 63.1 C283.58481 57.7 288 53.6 293.1 51.3 C295.311392 50.3 297.1 52.7 298.6 54 Z M132.151899 135.2 C133.701266 138.3 135 141.9 133.8 145.3 C132.648101 149.4 132.2 153.8 129.5 157.2 C126.906329 160.9 122.8 163.3 118.5 164.4 C113.407595 165.8 108.1 168.3 102.8 166.9 C101.853165 163.5 103.8 160.3 105.5 157.5 C111.291139 149.8 119.4 144.3 126.6 138.1 C128.253165 136.8 129.9 135.1 132.2 135.2 Z M126.501266 199.8 C130.349367 203.1 131.8 208.8 131.1 213.7 C128.587342 217.8 124.6 221.8 119.6 222.3 C114.106329 223.2 109 226.1 103.3 225.4 C96.0405063 225 88.6 226.3 81.4 224.8 C80.9417722 223.8 81 222.9 81.7 222 C87.9392405 213.9 97.3 208.9 106.7 205.5 C112.992405 202.5 120 202 126.5 199.8 Z M351.412658 303.4 C361.589873 303.5 372.1 303.3 381.8 306.9 C379.888608 310.7 374.6 311.6 370.7 311.6 C360.779747 311.4 351.1 313.7 341.2 314.7 C338.622785 314.4 334.3 315.2 333.3 311.9 C335.007595 309.2 337.2 306.9 339.9 305.1 C343.362025 303.1 347.6 303.6 351.4 303.4 Z M146.126582 323.5 C150.410127 331.2 150.8 340.3 152.2 348.9 C154.126582 356.5 155 364.4 156.3 372.2 C160.41519 388.5 160.6 405.6 158.9 422.3 C158.43038 428.7 153.4 434.9 146.8 435.5 C142.227848 436.2 138.2 433.1 135.3 429.9 C131.939241 426.2 131 421.2 129.1 416.8 C127.007595 412.1 127.6 406.7 125.9 401.9 C122.592405 392.8 122.8 383.1 122.6 373.6 C122.318987 363.1 123 352.6 123.7 342.1 C123.96962 338.3 126.1 335 127.2 331.4 C129.043038 325.7 131.1 319 136.9 316.1 C140.577215 317.7 143.8 320.3 146.1 323.5 Z M632.020253 322.8 C635.088608 323.2 637.2 325.6 639.2 327.7 C643.017722 331.7 646.6 336.4 647 342.1 C647.756962 349.2 649.2 356.3 649.9 363.5 C650.349367 368.6 649.3 373.6 648.8 378.7 C648.678481 380.5 648.1 382.3 647.4 384 C638.683544 376.8 627 373.4 615.8 374.7 C611.432911 375.2 607.7 378.7 603.2 378.1 C602.450633 375.3 602.6 372.4 602.5 369.5 C602.339241 358.5 602.5 347.4 604.1 336.4 C605.326582 331.1 608.9 326.6 612.9 323.2 C618.794937 319.5 625.8 321.8 632 322.8 Z M349.488608 433.3 C350.916456 437.6 351.5 442.2 352.3 446.7 C353.21519 452.5 353.3 459.1 349.5 464.1 C346.936709 468.5 341.5 471.1 336.5 469.7 C331.524051 468.5 325.8 467.8 322.4 463.6 C319.686076 461.1 319.6 457 321.2 453.9 C323.736709 448.6 327.7 444.3 332 440.4 C335.64557 436.8 340 433.9 344.7 431.9 C346.36962 431.3 348.8 431.4 349.5 433.3 Z M184.739241 556.9 C187.351899 561 190 565.5 190 570.5 C190.36962 576.8 193.4 582.5 193.4 588.8 C193.701266 597 195.3 605 195.4 613.2 C196.141772 620.7 197.3 628.3 195.6 635.8 C193.95443 642.6 194.6 650.4 189.7 656 C188.091139 658.5 184.8 657.9 182.3 657.8 C178.916456 657.6 176.5 654.8 174.6 652.3 C171.341772 647.6 168.5 642.5 166.7 637.1 C164.556962 628.3 165.7 619.1 164.2 610.2 C162.906329 601.5 164.8 592.8 165.7 584.2 C166.379747 579.1 165.7 573.8 167.5 568.9 C169.326582 563.8 170.5 557.6 175.8 555 C178.78481 554.3 182.3 555 184.7 556.9 Z M550.987342 555.9 C551.422785 555.9 552.3 555.9 552.7 556 C555.746835 561.4 558.2 567.4 558.6 573.6 C559.037975 580.2 561.6 586.3 561.8 592.8 C562.055696 598.8 563 604.8 564.4 610.6 C566.268354 618.8 565.9 627.2 565.9 635.6 C565.539241 645.4 565.5 655.3 562.6 664.8 C562.005063 666.5 561.3 668.8 559.2 669.1 C556.162025 667.1 553.6 664.3 551.6 661.3 C549.843038 658.4 549 655.1 547.7 652 C544.435443 644.5 546.5 636.2 545.6 628.3 C544.455696 617.6 544.9 606.7 545.1 595.9 C545.98481 582.5 545.9 568.6 551 555.9 Z M392.921519 563.8 C396.810127 566.7 398.7 571.8 399.1 576.6 C399.574684 581.8 401.1 586.8 401.9 591.9 C403.220253 599.2 402.9 606.7 404.1 614.1 C406.764557 631.9 407.5 650 407 668 C406.653165 675.2 408.2 682.8 405.3 689.6 C404.151899 692.3 400.3 693.3 398.2 691.2 C393.518987 687 391.4 680.8 388.7 675.3 C386.308861 670.7 387.1 665.3 385.4 660.5 C381.772152 649.5 383.4 637.7 382.1 626.4 C382.896203 615.6 382.6 604.6 385 594 C386.420253 587 386.4 579.8 387.2 572.6 C387.55443 569 389.7 565.5 392.9 563.8 Z" sketch:type="MSShapeGroup"/></g></g></svg>